<svg xmlns="http://www.w3.org/2000/svg" version="1.1" xmlns:xlink="http://www.w3.org/1999/xlink" xmlns:svgjs="http://svgjs.dev/svgjs" width="1440" height="560" preserveAspectRatio="none" viewBox="0 0 1440 560"><g mask="url(&quot;#SvgjsMask1048&quot;)" fill="none"><rect width="1440" height="560" x="0" y="0" fill="rgba(71, 73, 75, 1)"></rect><path d="M -894.276937810072,227 C -798.28,274.4 -606.28,492.8 -414.27693781007207,464 C -222.28,435.2 -126.28,108.8 65.72306218992793,83 C 257.72,57.2 353.72,318.2 545.723062189928,335 C 737.72,351.8 846.87,172.2 1025.723062189928,167 C 1204.58,161.8 1357.14,280.6 1440,309" stroke="rgba(173, 151, 79, 0.45)" stroke-width="2"></path><path d="M -73.39472488871064,52 C 22.61,128.6 214.61,423 406.60527511128936,435 C 598.61,447 694.61,119.4 886.6052751112893,112 C 1078.61,104.6 1174.61,394 1366.6052751112893,398 C 1558.61,402 1831.93,149.2 1846.6052751112893,132 C 1861.28,114.8 1521.32,276 1440,312" stroke="rgba(173, 151, 79, 0.45)" stroke-width="2"></path><path d="M -523.6962739599704,123 C -427.7,185.6 -235.7,440.8 -43.696273959970426,436 C 148.3,431.2 244.3,102.2 436.3037260400296,99 C 628.3,95.8 724.3,390.8 916.3037260400296,420 C 1108.3,449.2 1291.56,245.6 1396.3037260400297,245 C 1501.04,244.4 1431.26,382.6 1440,417" stroke="rgba(173, 151, 79, 0.45)" stroke-width="2"></path></g><defs><mask id="SvgjsMask1048"><rect width="1440" height="560" fill="#ffffff"></rect></mask></defs></svg>